<svg xmlns="http://www.w3.org/2000/svg" width="118" height="118" viewBox="0 0 118 118">
  <defs>
    <style>
      .cls-1 {
        fill: #2a90b8;
        fill-rule: evenodd;
      }
    </style>
  </defs>
  <path class="cls-1" d="M848.858,1109.35H820.4a6.972,6.972,0,0,1-6.972-6.96v-28.43A6.972,6.972,0,0,1,820.4,1067h28.457a6.972,6.972,0,0,1,6.971,6.96v28.43A6.972,6.972,0,0,1,848.858,1109.35Zm2.261-35.39a2.266,2.266,0,0,0-2.261-2.26H820.4a2.266,2.266,0,0,0-2.262,2.26v28.43a2.266,2.266,0,0,0,2.262,2.26h28.457a2.266,2.266,0,0,0,2.261-2.26v-28.43Zm-7.128,25.97H825.267a2.4,2.4,0,0,1-2.412-2.4v-18.71a2.4,2.4,0,0,1,2.412-2.4h18.724a2.4,2.4,0,0,1,2.412,2.4v18.71A2.4,2.4,0,0,1,843.991,1099.93Zm-37.564.19h-9.478a2.35,2.35,0,1,1,0-4.7h9.478A2.35,2.35,0,1,1,806.427,1100.12Zm0-18.91h-5.051a2.1,2.1,0,0,0-2.1,2.09v0.54a6.807,6.807,0,0,1-6.8,6.79h-0.271a2.1,2.1,0,0,0-2.1,2.1v4.84a2.355,2.355,0,1,1-4.71,0v-4.84a6.81,6.81,0,0,1,6.805-6.8h0.271a2.1,2.1,0,0,0,2.094-2.09v-0.54a6.808,6.808,0,0,1,6.8-6.79h5.051A2.35,2.35,0,1,1,806.427,1081.21Zm-0.093-9.4H791.968a2.089,2.089,0,0,0-2.094,2.09v4.96a2.356,2.356,0,0,1-4.711,0v-4.96a6.81,6.81,0,0,1,6.8-6.8h14.366A2.355,2.355,0,1,1,806.334,1071.81Zm-32.848,37.54H745.029a6.973,6.973,0,0,1-6.972-6.96v-28.43a6.973,6.973,0,0,1,6.972-6.96h28.457a6.973,6.973,0,0,1,6.972,6.96v28.43A6.973,6.973,0,0,1,773.486,1109.35Zm2.261-35.39a2.266,2.266,0,0,0-2.261-2.26H745.029a2.266,2.266,0,0,0-2.262,2.26v28.43a2.266,2.266,0,0,0,2.262,2.26h28.457a2.266,2.266,0,0,0,2.261-2.26v-28.43Zm-7.128,25.97H749.9a2.4,2.4,0,0,1-2.411-2.4v-18.71a2.4,2.4,0,0,1,2.411-2.4h18.724a2.4,2.4,0,0,1,2.412,2.4v18.71A2.4,2.4,0,0,1,768.619,1099.93Zm-28.264,14.19h5.113a6.817,6.817,0,0,1,6.816,6.81v9.98a2.113,2.113,0,0,0,2.106,2.11h4.784a2.35,2.35,0,1,1,0,4.7H754.39a6.817,6.817,0,0,1-6.816-6.81v-9.98a2.1,2.1,0,0,0-2.106-2.1h-5.113A2.355,2.355,0,1,1,740.355,1114.12Zm4.674,28.11h28.457a6.973,6.973,0,0,1,6.972,6.96v28.43a6.973,6.973,0,0,1-6.972,6.96H745.029a6.973,6.973,0,0,1-6.972-6.96v-28.43A6.973,6.973,0,0,1,745.029,1142.23Zm-2.262,35.39a2.266,2.266,0,0,0,2.262,2.26h28.457a2.266,2.266,0,0,0,2.261-2.26v-28.43a2.257,2.257,0,0,0-2.261-2.25H745.029a2.258,2.258,0,0,0-2.262,2.25v28.43Zm7.128-25.97h18.724a2.4,2.4,0,0,1,2.412,2.41v18.7a2.412,2.412,0,0,1-2.412,2.41H749.9a2.411,2.411,0,0,1-2.411-2.41v-18.7A2.4,2.4,0,0,1,749.9,1151.65Zm37.62,19.05a2.351,2.351,0,0,1,2.355,2.35v9.26a2.355,2.355,0,0,1-4.71,0v-9.26A2.351,2.351,0,0,1,787.515,1170.7Zm-2.29-11.76v-4.79a2.355,2.355,0,0,1,4.71,0v4.79a2.307,2.307,0,0,0,2.1,2.32h0.3a7.02,7.02,0,0,1,7.041,6.8v14.59a2.356,2.356,0,0,1-4.711,0v-14.59a2.31,2.31,0,0,0-2.33-2.09h-0.3A7.013,7.013,0,0,1,785.225,1158.94ZM806.4,1170.7h9.373a2.35,2.35,0,1,1,0,4.7H806.4A2.35,2.35,0,1,1,806.4,1170.7Zm0.058,9.36H822.78v-7.05a2.356,2.356,0,0,1,4.711,0v7.05h12.082a2.1,2.1,0,0,0,2.106-2.1v-4.95a2.355,2.355,0,0,1,4.71,0v4.95a6.815,6.815,0,0,1-6.816,6.8H806.454A2.35,2.35,0,1,1,806.454,1180.06Zm35.367-16.47a2.358,2.358,0,0,1,2.356-2.35h4.86a6.824,6.824,0,0,1,6.816,6.81v14.21a2.356,2.356,0,1,1-4.711,0v-14.21a2.1,2.1,0,0,0-2.105-2.1h-4.86A2.36,2.36,0,0,1,841.821,1163.59Zm7.07-11.8h4.747a2.35,2.35,0,1,1,0,4.7h-4.747a7.11,7.11,0,1,1,0-14.22h0.488a1.862,1.862,0,0,0,1.752-2.1v-4.85a2.355,2.355,0,1,1,4.71,0v4.85a6.49,6.49,0,0,1-6.462,6.8h-0.488A2.41,2.41,0,0,0,848.891,1151.79ZM834.6,1114.12h14.285a7.11,7.11,0,1,1,0,14.22h-4.76a2.35,2.35,0,1,1,0-4.7h4.76a2.405,2.405,0,1,0,0-4.81H834.6A2.355,2.355,0,1,1,834.6,1114.12Zm-28.347,0h14.466a6.817,6.817,0,0,1,6.816,6.81v9.97a2.1,2.1,0,0,0,2.106,2.1h4.9a2.355,2.355,0,1,1,0,4.71h-4.9a6.824,6.824,0,0,1-6.816-6.81v-9.97a2.1,2.1,0,0,0-2.106-2.1H806.249A2.355,2.355,0,1,1,806.249,1114.12Zm0.316,23.57a2.351,2.351,0,0,1-2.355-2.35v-4.97a6.823,6.823,0,0,1,6.815-6.81h4.753a2.355,2.355,0,1,1,0,4.71h-4.753a2.1,2.1,0,0,0-2.105,2.1v4.97A2.352,2.352,0,0,1,806.565,1137.69Zm16.324,16.48v-9.27a2.355,2.355,0,0,1,4.71,0v9.27A2.355,2.355,0,0,1,822.889,1154.17Zm11.754-11.75a2.36,2.36,0,0,1,2.355,2.36v14.24a6.818,6.818,0,0,1-6.816,6.81H815.709a2.35,2.35,0,1,1,0-4.7h14.473a2.112,2.112,0,0,0,2.105-2.11v-14.24A2.36,2.36,0,0,1,834.643,1142.42ZM808.8,1154.14v9.27a2.355,2.355,0,0,1-4.71,0v-9.27A2.355,2.355,0,0,1,808.8,1154.14Zm4.555-18.8a2.356,2.356,0,0,1,4.711,0v18.81a2.356,2.356,0,0,1-4.711,0v-6.89l-16.428-.11a2.35,2.35,0,0,1,.015-4.7h0.015l16.4,0.1v-7.21Zm-21.166,2.52H777.9a2.355,2.355,0,1,1,0-4.71h14.284a2.405,2.405,0,1,0,0-4.81h-4.76a2.35,2.35,0,1,1,0-4.7h4.76A7.11,7.11,0,1,1,792.188,1137.86Zm-23.516-23.66a2.357,2.357,0,0,1,2.355,2.35v7.09h7.113a2.35,2.35,0,1,1,0,4.7H759.3a2.35,2.35,0,1,1,0-4.7h7.021v-7.09A2.357,2.357,0,0,1,768.672,1114.2Zm28.277-9.42a2.352,2.352,0,0,1,2.355,2.35v4.89a6.824,6.824,0,0,1-6.816,6.81H778.14a2.355,2.355,0,1,1,0-4.71h14.348a2.1,2.1,0,0,0,2.106-2.1v-4.89A2.351,2.351,0,0,1,796.949,1104.78Z" transform="translate(-738 -1067)"/>
</svg>
