<svg xmlns="http://www.w3.org/2000/svg" viewBox="0 0 112.66 112.03"><defs><style>.cls-1{fill:#2a90b8;}</style></defs><title>Asset 1</title><g id="Layer_2" data-name="Layer 2"><g id="Layer_1-2" data-name="Layer 1"><path class="cls-1" d="M88.12,7.8a16.74,16.74,0,0,1,16.74,16.74V87.48a16.74,16.74,0,0,1-16.74,16.75H24.54A16.75,16.75,0,0,1,7.8,87.48V24.54A16.75,16.75,0,0,1,24.54,7.8H88.12m0-7.8H24.54A24.57,24.57,0,0,0,0,24.54V87.48A24.58,24.58,0,0,0,24.54,112H88.12a24.58,24.58,0,0,0,24.54-24.55V24.54A24.57,24.57,0,0,0,88.12,0Z"/><path class="cls-1" d="M90,42.17H57.24a3.9,3.9,0,1,1,0-7.8H90a3.9,3.9,0,1,1,0,7.8Z"/><path class="cls-1" d="M90,77.66H57.24a3.9,3.9,0,0,1,0-7.8H90a3.9,3.9,0,1,1,0,7.8Z"/><path class="cls-1" d="M30.21,32.75a5.52,5.52,0,1,1-5.51,5.52,5.52,5.52,0,0,1,5.51-5.52m0-7.8A13.32,13.32,0,1,0,43.53,38.27,13.33,13.33,0,0,0,30.21,25Z"/><path class="cls-1" d="M30.21,68.25a5.51,5.51,0,1,1-5.51,5.51,5.51,5.51,0,0,1,5.51-5.51m0-7.8A13.31,13.31,0,1,0,43.53,73.76,13.32,13.32,0,0,0,30.21,60.45Z"/></g></g></svg>