<svg xmlns="http://www.w3.org/2000/svg" width="140" height="117" viewBox="0 0 140 117">
  <defs>
    <style>
      .cls-1 {
        fill: #2a90b8;
        fill-rule: evenodd;
      }
    </style>
  </defs>
  <path class="cls-1" d="M862.289,1602.98h0a4.711,4.711,0,0,0,4.711-4.71v-28.83a5.445,5.445,0,0,0-5.445-5.44H832.473a4.71,4.71,0,0,0-4.71,4.71v0.14a4.71,4.71,0,0,0,4.71,4.71h25.106v24.71A4.711,4.711,0,0,0,862.289,1602.98Zm-4.71,43.65v24.87H832.473a4.71,4.71,0,0,0-4.71,4.71v0.08a4.71,4.71,0,0,0,4.71,4.71h29.082a5.445,5.445,0,0,0,5.445-5.44v-28.93a4.711,4.711,0,0,0-4.711-4.71h0A4.711,4.711,0,0,0,857.579,1646.63Zm-121.164-48.36v-24.71h24.84a4.709,4.709,0,0,0,4.707-4.71v-0.14a4.709,4.709,0,0,0-4.707-4.71h-28.81a5.445,5.445,0,0,0-5.445,5.44v28.83a4.71,4.71,0,0,0,4.708,4.71h0A4.709,4.709,0,0,0,736.415,1598.27Zm-4.707,43.65h0a4.71,4.71,0,0,0-4.708,4.71v28.93a5.445,5.445,0,0,0,5.445,5.44h28.81a4.709,4.709,0,0,0,4.707-4.71v-0.08a4.709,4.709,0,0,0-4.707-4.71h-24.84v-24.87A4.709,4.709,0,0,0,731.708,1641.92Zm65.194-52.7c-18.192,0-32.94,15.04-32.94,33.59s14.748,33.59,32.94,33.59,32.941-15.04,32.941-33.59S815.1,1589.22,796.9,1589.22Zm0,57.35a23.765,23.765,0,1,1,23.286-23.76A23.528,23.528,0,0,1,796.9,1646.57Z" transform="translate(-727 -1564)"/>
</svg>
